<svg xmlns="http://www.w3.org/2000/svg" viewBox="0 0 1080 1080"><title>Artboard 1</title><g id="Layer_1" data-name="Layer 1"><g id="_1" data-name="1"><path d="M760.62,754.1a28.94,28.94,0,1,1-43.4-25v-29.4c-25.08-1.11-48.84-1.42-48.84-1.42H411.61s-69.77.92-96.34,5.17c-35,5.59-56.65,25.23-67.45,51.14h-25.4a18,18,0,1,0,0,36h17.07c-2.27,32.8,7.18,68.08,23.07,94.27,39.54,65.23,124.38,92.94,210.4,4.48,27.31-28.07,40.6-51.55,47.09-75.17,0,0,1.12-5.56,1.72-7.42,2.46-7.7,9.62-13.91,18-13.91h.37c8.22,0,15.24,6,17.86,13.45.71,2,1.82,7.41,1.85,7.54,6.48,23.68,19.77,47.59,47.14,75.73,86,88.45,170.86,60.44,210.41-4.79,15.95-26.3,24.25-62.77,22.69-94.18h17.45a18,18,0,0,0,0-36h-25.4c-10.81-25.91-32.46-45.55-67.45-51.14-4.94-.79-11.38-1.46-18.58-2v27.69A28.91,28.91,0,0,1,760.62,754.1ZM558.29,760a54.89,54.89,0,0,0-18.11-3.2h-.37a54.88,54.88,0,0,0-18.1,3.2c-2.35-9.58-6.25-16.71-11.6-25.72h59.78C564.54,743.29,560.63,750.42,558.29,760Z"/><path d="M893.48,306.19,572.36,141.66c-18.46-9.47-46.27-9.47-64.72,0L186.52,306.19c-11.78,6-18.55,15.53-18.53,26.07s6.75,20,18.52,26.07l96.68,49.53c0,.14-.08.26-.08.4V596.37A14.46,14.46,0,0,0,290,608.72c4,2.45,100.06,60,253.54,60,71.63,0,130.54-12.55,173.64-26.17v57.11c9.9.44,20,1,28.93,1.71v-68.9c31.32-12.05,49.28-22.73,51-23.75A14.46,14.46,0,0,0,804,596.37V408.27a14,14,0,0,0-.75-3.73l90.2-46.21c11.78-6,18.55-15.53,18.53-26.07S905.25,312.22,893.48,306.19ZM717.21,612c-41.33,13.91-100.71,27.8-173.64,27.8-122.32,0-207.43-39.37-231.52-52V422.65L507.64,522.86c9.22,4.73,20.78,7.09,32.35,7.09s23.13-2.36,32.36-7.09l144.86-74.22Zm57.88-24.13c-6,3.14-15.75,7.94-28.93,13.38v-164a13.81,13.81,0,0,0-.63-3.08L775.09,419ZM880.28,332.58,559.16,497.11c-10,5.14-28.29,5.14-38.32,0L199.71,332.58l-.61-.32.61-.33L520.84,167.41c10-5.15,28.29-5.15,38.32,0L880.28,331.93l.61.33Z"/><path d="M390.56,297.16a14.36,14.36,0,0,0-19.24-6.41L314,319.43a14.34,14.34,0,1,0,12.83,25.65l57.37-28.68A14.34,14.34,0,0,0,390.56,297.16Z"/><path d="M428.68,319.43l-57.36,28.68a14.34,14.34,0,0,0,12.83,25.66l57.36-28.69a14.34,14.34,0,1,0-12.83-25.65Z"/></g></g></svg>