<svg xmlns="http://www.w3.org/2000/svg" viewBox="0 0 1080 1080"><defs><style>.cls-1{font-size:130px;font-family:Poppins-Regular, Poppins;}</style></defs><title>Artboard 2</title><g id="Layer_2" data-name="Layer 2"><g id="_2" data-name="2"><path d="M673.92,596.08a17.57,17.57,0,1,1-26.35-15.2V563c-15.22-.67-29.64-.86-29.64-.86H462.07s-42.35.56-58.48,3.14c-21.24,3.39-34.39,15.31-40.94,31H347.23a10.94,10.94,0,0,0,0,21.88h10.36c-1.38,19.91,4.36,41.32,14,57.22,24,39.6,75.5,56.41,127.72,2.72,16.57-17,24.64-31.29,28.58-45.63,0,0,.68-3.37,1-4.5,1.5-4.68,5.84-8.45,11-8.45h.22c5,0,9.25,3.66,10.84,8.17.43,1.22,1.11,4.5,1.13,4.57,3.93,14.38,12,28.89,28.61,46C632.91,732,684.4,715,708.41,675.4c9.68-16,14.72-38.11,13.77-57.17h10.59a10.94,10.94,0,1,0,0-21.88H717.36c-6.56-15.73-19.71-27.65-41-31-3-.48-6.9-.89-11.27-1.24v16.81A17.56,17.56,0,0,1,673.92,596.08ZM551.1,599.66a33.11,33.11,0,0,0-11-1.94h-.22a33.11,33.11,0,0,0-11,1.94c-1.43-5.82-3.8-10.15-7-15.61h36.28C554.9,589.51,552.53,593.84,551.1,599.66Z"/><path d="M754.57,324.19,559.64,224.32c-11.2-5.75-28.08-5.75-39.28,0L325.43,324.19c-7.14,3.66-11.25,9.43-11.24,15.83s4.1,12.16,11.24,15.82l58.69,30.07a2,2,0,0,0-.05.24V500.34a8.77,8.77,0,0,0,4.2,7.49c2.44,1.49,60.74,36.42,153.9,36.42a349.6,349.6,0,0,0,105.4-15.89V563c6,.27,12.15.61,17.57,1V522.25c19-7.32,29.91-13.8,30.93-14.42a8.77,8.77,0,0,0,4.2-7.5V386.15a8.55,8.55,0,0,0-.45-2.26l54.75-28.05c7.15-3.66,11.25-9.42,11.25-15.82S761.71,327.85,754.57,324.19Zm-107,185.62a330.93,330.93,0,0,1-105.4,16.88c-74.25,0-125.91-23.9-140.54-31.54V394.88l118.73,60.83a46.9,46.9,0,0,0,39.28,0l87.93-45Zm35.14-14.64c-3.64,1.9-9.56,4.82-17.57,8.12V403.72a8.39,8.39,0,0,0-.38-1.87l18-9.19Zm63.85-155L551.63,440.08c-6.09,3.12-17.17,3.12-23.26,0L333.44,340.21l-.36-.19.36-.2L528.37,240c6.09-3.12,17.17-3.12,23.26,0l194.93,99.87.36.2Z"/><path d="M449.29,318.71a8.72,8.72,0,0,0-11.68-3.89l-34.82,17.41a8.71,8.71,0,0,0,7.79,15.57l34.82-17.41A8.71,8.71,0,0,0,449.29,318.71Z"/><path d="M472.43,332.23l-34.82,17.41a8.71,8.71,0,0,0,7.79,15.57l34.82-17.41a8.71,8.71,0,1,0-7.79-15.57Z"/></g><text class="cls-1" transform="translate(242.89 840.31)">PROFISSA</text></g></svg>