<svg id="Layer_3" data-name="Layer 3" xmlns="http://www.w3.org/2000/svg" viewBox="0 0 1080 1080"><defs><style>.cls-1{font-size:116.9px;font-family:Poppins-Regular, Poppins;}</style></defs><title>Artboard 3</title><g id="_2" data-name="2"><path d="M313.93,609.21a9.36,9.36,0,1,1-14-8.09v-9.51c-8.11-.35-15.79-.46-15.79-.46h-83s-22.55.3-31.14,1.68c-11.31,1.8-18.31,8.15-21.81,16.53h-8.21a5.83,5.83,0,0,0,0,11.65h5.52a54,54,0,0,0,7.46,30.47c12.78,21.09,40.21,30,68,1.45,8.82-9.07,13.12-16.66,15.22-24.3,0,0,.36-1.8.55-2.4a6.34,6.34,0,0,1,5.84-4.5h.12a6.36,6.36,0,0,1,5.77,4.35c.23.66.59,2.4.6,2.44,2.09,7.66,6.39,15.39,15.24,24.48,27.8,28.6,55.23,19.54,68-1.54,5.16-8.51,7.85-20.3,7.34-30.45h5.64a5.83,5.83,0,1,0,0-11.65h-8.21c-3.49-8.38-10.49-14.73-21.8-16.53-1.6-.26-3.68-.48-6-.66v9A9.35,9.35,0,0,1,313.93,609.21Zm-65.41,1.91a17.76,17.76,0,0,0-5.85-1h-.12a17.82,17.82,0,0,0-5.86,1,29.14,29.14,0,0,0-3.75-8.32h19.33A29.14,29.14,0,0,0,248.52,611.12Z"/><path d="M356.88,464.42,253.07,411.23c-6-3.06-15-3.06-20.93,0l-103.8,53.19c-3.81,1.94-6,5-6,8.42s2.18,6.48,6,8.43l31.26,16c0,.05,0,.09,0,.13v60.81a4.69,4.69,0,0,0,2.24,4c1.3.79,32.35,19.39,82,19.39a186.44,186.44,0,0,0,56.14-8.46v18.46c3.2.14,6.46.33,9.35.56V569.89a111.06,111.06,0,0,0,16.47-7.67,4.69,4.69,0,0,0,2.24-4V497.41a4.41,4.41,0,0,0-.24-1.2l29.16-14.94c3.8-1.95,6-5,6-8.43S360.68,466.36,356.88,464.42Zm-57,98.85a176.2,176.2,0,0,1-56.13,9c-39.54,0-67-12.73-74.84-16.8v-53.4l63.22,32.4a25.06,25.06,0,0,0,20.93,0l46.82-24Zm18.72-7.8c-1.94,1-5.1,2.57-9.36,4.33v-53a4.7,4.7,0,0,0-.2-1l9.56-4.9Zm34-82.52L248.8,526.13c-3.24,1.67-9.15,1.67-12.39,0L132.6,473l-.19-.11.19-.1,103.81-53.19c3.24-1.66,9.15-1.66,12.39,0l103.81,53.19.2.1Z"/><path d="M194.3,461.5a4.64,4.64,0,0,0-6.22-2.08l-18.55,9.28a4.64,4.64,0,0,0,4.15,8.29l18.54-9.27A4.64,4.64,0,0,0,194.3,461.5Z"/><path d="M206.62,468.7,188.08,478a4.63,4.63,0,1,0,4.14,8.29L210.77,477a4.64,4.64,0,0,0-4.15-8.29Z"/></g><text class="cls-1" transform="translate(402.15 594.2)">PROFISSA</text></svg>